<?xml version="1.0" standalone="no"?>
<!DOCTYPE svg PUBLIC "-//W3C//DTD SVG 20010904//EN"
 "http://www.w3.org/TR/2001/REC-SVG-20010904/DTD/svg10.dtd">
<svg version="1.0" xmlns="http://www.w3.org/2000/svg"
 width="500.000000pt" height="500.000000pt" viewBox="0 0 500.000000 500.000000"
 preserveAspectRatio="xMidYMid meet">
<metadata>
Created by potrace 1.16, written by Peter Selinger 2001-2019
</metadata>
<g transform="translate(0.000000,500.000000) scale(0.100000,-0.100000)"
fill="#000000" stroke="none">
<path d="M1781 4940 c-48 -58 -70 -94 -85 -143 -7 -21 5 -24 -271 58 -290 86
-270 84 -312 44 -36 -35 -85 -102 -96 -130 -4 -13 -1 -16 14 -12 10 3 19 0 19
-6 0 -6 -5 -11 -11 -11 -8 0 -8 -5 1 -15 17 -21 7 -41 -26 -49 -23 -6 -33 -1
-63 30 -32 33 -81 60 -246 135 -27 13 -54 25 -59 27 -5 3 -6 -2 -3 -11 9 -24
-7 -29 -39 -12 -16 8 -40 15 -54 15 -14 1 -43 7 -65 15 -37 13 -41 13 -60 -5
-19 -19 -19 -21 -1 -51 23 -38 14 -48 -23 -26 -35 21 -71 22 -71 3 0 -7 6 -29
14 -47 17 -41 6 -69 -28 -69 -12 0 -26 -3 -29 -6 -4 -4 23 -44 59 -90 36 -46
62 -84 59 -84 -3 0 -20 7 -37 16 -26 14 -24 9 21 -38 28 -29 51 -57 51 -61 0
-5 -15 -6 -32 -3 -22 4 -5 -8 49 -34 114 -55 116 -65 12 -56 -46 4 -101 12
-121 18 -35 10 -39 9 -73 -21 -43 -38 -49 -38 -43 -6 8 37 2 31 -25 -29 -44
-97 -45 -92 16 -155 51 -52 127 -156 127 -173 0 -5 -6 -8 -14 -8 -7 0 -19 -7
-26 -15 -10 -12 -5 -18 36 -36 27 -11 52 -26 56 -32 13 -21 9 -37 -11 -37 -48
0 -23 -20 68 -54 54 -21 138 -60 187 -87 105 -59 402 -251 403 -261 1 -11
-165 59 -335 141 -138 67 -389 204 -469 257 -24 16 -25 15 -36 -12 -6 -16 -26
-85 -43 -154 -31 -119 -64 -202 -85 -215 -6 -3 3 -26 19 -52 17 -26 30 -50 30
-53 0 -4 -17 -14 -37 -24 -37 -18 -37 -18 -16 -34 21 -17 26 -30 24 -65 -1
-15 -6 -17 -29 -12 -19 4 -33 1 -41 -8 -9 -12 -3 -21 34 -51 31 -26 45 -45 45
-62 0 -29 -5 -30 -37 -4 -27 21 -46 19 -25 -2 20 -20 13 -28 -18 -21 l-30 6 0
-601 0 -600 55 -41 c67 -51 155 -103 155 -92 0 4 -16 29 -36 55 -21 25 -35 49
-32 52 3 3 38 -11 77 -31 134 -67 435 -282 632 -451 122 -104 220 -173 287
-199 22 -9 48 -27 56 -40 8 -12 35 -30 59 -38 113 -38 395 -229 633 -428 50
-42 107 -82 127 -88 19 -7 51 -27 71 -46 20 -19 73 -55 118 -80 74 -41 82 -44
93 -28 11 15 20 12 95 -36 67 -43 178 -101 194 -101 2 0 3 6 2 13 -3 26 14 20
90 -34 44 -31 90 -62 103 -69 21 -11 23 -10 17 5 -6 16 0 17 68 12 76 -5 146
-30 193 -67 15 -11 29 -17 32 -12 18 28 92 35 107 11 10 -18 24 -9 24 16 0 14
4 25 8 25 5 0 38 -15 73 -32 58 -30 72 -33 149 -32 55 1 111 9 160 23 195 56
214 60 266 49 27 -6 111 -37 188 -70 88 -37 165 -63 210 -70 70 -10 72 -10
160 26 146 59 186 96 186 174 0 23 5 44 11 48 6 3 19 20 29 36 18 30 18 31 0
51 -11 11 -24 42 -29 68 -10 44 -9 51 9 69 24 24 29 60 5 40 -8 -6 -20 -10
-27 -8 -17 4 -158 154 -158 168 0 6 12 29 26 51 24 39 26 40 48 26 13 -9 40
-20 62 -26 23 -6 73 -39 120 -78 79 -66 165 -109 252 -128 l32 -7 0 364 -1
363 -87 55 c-79 50 -212 162 -212 179 0 4 39 6 88 4 48 -2 114 2 147 9 l60 13
3 289 2 289 -74 69 c-47 43 -79 81 -86 103 -11 33 -10 36 24 66 44 38 60 91
50 166 -6 49 -4 57 19 81 54 59 67 101 67 229 0 176 -3 187 -61 222 -26 17
-72 52 -101 78 -90 81 -215 183 -408 333 -298 231 -519 415 -528 441 -6 15
115 -39 408 -181 157 -76 317 -150 357 -164 l72 -25 51 56 c27 32 50 64 50 72
0 25 -146 160 -245 227 -138 93 -238 151 -510 294 -864 453 -1323 656 -1695
750 -168 42 -278 59 -426 67 l-131 6 -52 -63z m489 -1455 c330 -142 758 -363
1091 -562 l177 -105 16 -56 c8 -31 14 -58 11 -60 -13 -13 -64 16 -120 68 -44
41 -73 60 -90 60 -15 0 -24 4 -20 9 8 14 -280 203 -465 306 -85 47 -311 164
-502 261 -192 96 -348 177 -348 179 0 6 62 -19 250 -100z m-1515 -280 c169
-35 345 -110 725 -308 47 -25 126 -58 175 -73 110 -35 363 -159 505 -249 127
-81 250 -167 250 -177 0 -4 -28 8 -62 27 -35 19 -81 41 -103 49 -39 16 -37 13
29 -29 17 -12 32 -29 34 -39 4 -16 0 -15 -30 6 -18 14 -59 35 -91 48 -32 12
-66 33 -76 47 -12 15 -83 51 -188 97 -244 106 -455 214 -586 300 -24 16 -27
16 -21 2 8 -20 -6 -20 -43 -1 -15 9 -39 20 -53 25 -14 6 -32 14 -40 18 -8 5
-67 34 -130 66 -122 60 -180 78 -180 56 0 -10 -5 -9 -17 2 -10 9 -29 19 -43
23 -32 9 -250 124 -250 132 0 8 109 -5 195 -22z m1393 -436 c23 -17 42 -28 42
-24 0 10 70 -34 105 -65 37 -34 136 -100 150 -100 5 0 -8 12 -30 27 -28 19
-35 28 -24 31 29 5 125 -37 235 -105 60 -37 143 -85 185 -107 47 -26 74 -46
71 -54 -5 -16 21 -46 63 -74 22 -14 18 -8 -12 20 -45 42 -54 58 -27 48 14 -5
15 -4 4 9 -18 21 -7 19 53 -11 91 -47 227 -143 221 -158 -6 -15 70 -87 164
-153 35 -25 61 -48 58 -50 -15 -15 -128 43 -279 144 -95 63 -234 146 -309 185
-76 38 -160 87 -188 109 -27 21 -59 39 -70 39 -29 0 -57 16 -115 67 -29 25
-78 54 -117 69 -69 26 -94 44 -62 44 14 0 16 3 6 13 -7 6 -16 12 -20 12 -4 0
-42 13 -85 29 -74 29 -98 51 -82 76 9 15 18 13 63 -21z m-1066 -131 c85 -38
110 -43 180 -38 57 4 356 -181 345 -213 -2 -7 62 -58 142 -115 80 -57 153
-110 161 -118 24 -24 -58 14 -285 131 -111 58 -267 129 -346 159 -154 57 -255
104 -306 143 -67 52 -36 48 120 -13 89 -35 153 -56 142 -48 -31 24 -183 99
-252 124 -35 12 -63 24 -63 26 0 2 16 4 35 4 20 0 76 -18 127 -42z m769 -64
c35 -14 82 -35 104 -46 69 -35 296 -170 292 -174 -7 -7 -294 123 -360 162 -67
41 -124 84 -109 84 4 0 37 -12 73 -26z m-654 -110 c241 -90 535 -252 461 -254
-7 0 12 -23 42 -50 66 -59 49 -65 -44 -16 -43 23 -61 37 -54 44 7 7 -3 17 -31
31 -22 12 -41 26 -41 31 0 17 -39 11 -59 -9 -18 -18 -20 -17 -110 15 -101 36
-166 70 -196 104 l-20 23 45 -6 45 -6 -40 24 c-55 32 -93 63 -105 86 -15 26
-6 25 107 -17z m853 -410 c30 -14 75 -41 100 -61 43 -35 44 -36 16 -5 -16 18
-27 35 -23 38 3 3 34 -11 69 -32 41 -25 57 -40 46 -42 -10 -2 -15 -9 -11 -18
4 -10 9 -12 18 -4 9 8 34 -4 93 -45 44 -30 92 -69 105 -85 17 -19 27 -25 30
-17 9 20 27 -15 21 -38 -4 -11 -8 -21 -9 -23 -10 -12 -535 335 -535 353 0 11
28 3 80 -21z m-1560 -292 c72 -31 163 -90 235 -152 25 -22 48 -40 49 -40 2 0
1 11 -2 25 -2 14 -1 25 3 25 31 0 416 -217 475 -269 39 -33 37 -34 -64 -5 -44
12 -47 12 -35 -2 7 -9 64 -50 127 -91 62 -41 111 -77 109 -80 -6 -5 -119 33
-162 54 -57 29 -245 148 -245 155 0 16 43 7 73 -14 29 -20 30 -20 15 -2 -22
25 -167 109 -174 101 -6 -5 45 -41 71 -51 6 -2 7 -6 4 -9 -11 -12 -94 38 -114
69 -14 21 -54 48 -131 88 -92 47 -324 206 -324 222 0 10 28 2 90 -24z m828
-239 c20 -28 14 -36 -14 -18 -14 9 -28 14 -31 11 -3 -2 44 -29 103 -58 78 -38
113 -61 124 -81 13 -24 13 -29 1 -36 -19 -12 -140 48 -172 86 -19 22 -33 28
-65 29 -56 1 -232 105 -209 124 20 17 70 6 117 -25 54 -36 47 -12 -7 25 -25
17 -45 37 -45 44 0 16 178 -75 198 -101z"/>
</g>
</svg>
