<?xml version="1.0" standalone="no"?>
<!DOCTYPE svg PUBLIC "-//W3C//DTD SVG 20010904//EN"
 "http://www.w3.org/TR/2001/REC-SVG-20010904/DTD/svg10.dtd">
<svg version="1.0" xmlns="http://www.w3.org/2000/svg"
 width="500.000000pt" height="500.000000pt" viewBox="0 0 500.000000 500.000000"
 preserveAspectRatio="xMidYMid meet">
<metadata>
Created by potrace 1.16, written by Peter Selinger 2001-2019
</metadata>
<g transform="translate(0.000000,500.000000) scale(0.100000,-0.100000)"
fill="#000000" stroke="none">
<path d="M0 4395 l0 -605 105 -70 c58 -39 105 -73 105 -75 0 -3 -21 4 -47 14
-27 11 -72 28 -101 40 -29 12 -55 21 -58 21 -2 0 -3 -88 -2 -196 l3 -196 106
-38 c135 -48 308 -131 545 -260 104 -57 200 -103 218 -105 70 -6 365 -137 571
-253 101 -56 379 -240 425 -281 29 -25 13 -20 -94 34 -71 36 -132 63 -135 59
-3 -4 -1 -9 5 -11 6 -2 35 -18 65 -36 37 -22 55 -40 57 -56 4 -23 3 -23 -35 6
-21 16 -69 43 -108 58 -39 16 -84 43 -102 62 -23 24 -80 54 -200 105 -225 97
-572 270 -712 358 -63 39 -116 68 -119 66 -2 -3 7 -11 22 -17 14 -7 26 -18 26
-26 0 -17 2 -17 -66 13 -33 15 -84 37 -114 51 -67 29 -105 49 -190 95 -36 20
-89 43 -117 52 l-53 15 0 -939 0 -938 117 -62 c200 -106 391 -229 367 -237 -6
-2 -48 8 -95 21 l-84 24 45 -39 c25 -22 98 -74 163 -116 65 -41 116 -78 113
-81 -8 -7 -131 36 -201 70 -91 45 -305 181 -299 190 10 15 47 8 78 -15 54 -40
63 -40 18 1 -39 34 -187 122 -207 122 -16 0 21 -33 59 -52 23 -12 36 -23 29
-25 -9 -3 -52 12 -95 35 -5 2 -8 -28 -8 -66 l0 -70 53 -45 c77 -65 163 -122
250 -163 42 -20 79 -43 82 -52 2 -10 53 -40 112 -69 214 -103 527 -319 779
-538 39 -35 92 -70 120 -80 27 -11 66 -36 88 -57 l38 -38 1554 0 c1087 0 1554
3 1554 11 0 5 5 7 10 4 6 -3 13 2 17 12 3 10 12 25 20 34 11 14 11 18 -1 28
-11 9 -15 8 -20 -4 -6 -16 -56 -21 -56 -5 0 5 -38 50 -85 99 -47 50 -85 95
-85 100 0 6 10 26 23 44 12 19 27 42 32 51 9 15 15 14 59 -9 27 -14 57 -25 66
-25 20 0 72 -37 160 -113 57 -51 182 -117 219 -117 8 0 11 141 11 464 l0 464
-67 48 c-71 50 -203 171 -203 186 0 4 31 5 69 2 37 -4 98 -3 135 0 l66 8 0
410 0 410 -45 51 c-25 28 -50 67 -56 85 -11 32 -9 35 29 67 69 60 70 63 71
500 l1 390 -77 65 c-225 192 -321 270 -558 453 -365 283 -635 511 -621 524 8
8 201 -79 526 -237 179 -87 365 -173 414 -191 l89 -34 69 75 c37 40 68 78 68
83 0 36 -182 201 -338 305 -179 121 -648 375 -1209 656 l-213 106 -1575 0
-1575 0 0 -605z m1582 -619 c340 -142 835 -382 1158 -561 164 -91 489 -284
528 -313 20 -15 69 -149 58 -159 -12 -13 -67 18 -120 66 -91 84 -115 101 -150
101 -18 0 -26 3 -19 8 20 13 -235 186 -497 338 -74 43 -360 192 -635 331 -275
139 -495 252 -488 253 6 0 80 -29 165 -64z m-395 -521 c81 -37 197 -109 185
-113 -8 -2 -9 -9 -2 -23 10 -17 8 -18 -22 -13 -18 4 -69 26 -113 51 -44 24
-92 47 -108 50 -23 5 -25 8 -15 21 9 11 10 16 2 19 -6 2 -20 10 -30 18 -18 13
-17 14 16 15 19 0 59 -11 87 -25z m473 -470 c17 -9 30 -20 30 -26 0 -6 5 -7
11 -4 5 4 26 -9 45 -29 51 -53 194 -146 194 -127 0 6 -18 21 -40 33 -50 29
-51 42 -4 33 60 -11 137 -49 320 -160 96 -59 195 -115 220 -125 25 -11 44 -26
44 -35 0 -8 7 -15 16 -15 9 0 32 -9 50 -21 19 -11 40 -19 47 -16 6 3 -9 14
-34 25 -46 20 -71 42 -49 42 39 0 360 -208 340 -220 -19 -12 52 -83 174 -175
59 -44 100 -81 93 -83 -35 -7 -146 52 -344 184 -128 85 -278 176 -367 221
-154 78 -246 134 -280 172 -13 14 -31 21 -55 21 -40 0 -62 13 -136 78 -49 44
-81 61 -179 98 -50 19 -72 44 -40 44 17 0 17 1 1 17 -10 10 -23 18 -30 19 -42
3 -77 18 -77 34 0 15 8 30 17 30 2 0 17 -7 33 -15z m-1399 -123 c115 -52 154
-61 188 -43 23 13 193 -60 291 -123 85 -55 162 -125 156 -141 -2 -7 81 -72
190 -150 107 -76 192 -140 189 -144 -3 -3 -151 68 -328 157 -212 106 -379 183
-487 223 -91 34 -194 76 -230 94 -68 34 -170 109 -170 124 0 5 89 -27 198 -71
108 -44 204 -82 212 -85 8 -3 -1 6 -20 19 -64 46 -204 116 -305 153 -55 20
-102 39 -105 42 -3 3 20 3 50 1 37 -3 92 -21 171 -56z m937 -73 c120 -47 510
-264 498 -276 -7 -7 -357 151 -431 195 -92 53 -173 112 -157 112 8 0 48 -14
90 -31z m-728 -168 c152 -61 419 -197 490 -251 21 -16 22 -20 10 -35 -13 -15
-11 -20 15 -39 56 -40 90 -74 82 -82 -4 -5 -48 13 -97 38 -72 38 -87 49 -73
56 14 8 7 15 -36 36 -28 15 -54 33 -58 41 -3 8 -11 15 -19 15 -23 0 -64 -23
-64 -36 0 -10 -30 -3 -102 22 -135 47 -201 80 -252 126 l-41 37 33 1 c18 0 48
-7 67 -14 55 -23 41 -11 -37 33 -40 23 -80 47 -88 54 -18 14 -50 58 -50 69 0
7 121 -32 220 -71z m990 -481 c19 -10 64 -39 99 -65 58 -43 77 -44 24 -2 -20
16 -32 47 -18 47 10 0 151 -95 158 -107 5 -7 47 -40 95 -72 48 -32 106 -79
130 -104 23 -26 42 -42 42 -37 0 15 27 12 33 -3 5 -14 -2 -67 -10 -67 -33 0
-663 420 -663 442 0 9 68 -11 110 -32z m-933 -642 c11 -11 23 -28 26 -38 4
-17 2 -17 -30 2 -18 11 -36 18 -39 15 -7 -7 36 -30 136 -74 85 -37 115 -57
144 -96 18 -25 19 -29 4 -43 -14 -14 -23 -12 -95 25 -44 22 -95 56 -114 75
-27 30 -41 36 -74 36 -22 0 -62 11 -90 25 -68 33 -186 108 -188 119 -4 17 49
24 88 11 20 -8 53 -25 73 -39 20 -14 37 -24 39 -22 9 9 -12 34 -52 61 -24 16
-48 39 -54 51 -8 18 8 12 97 -34 59 -30 117 -64 129 -74z"/>
</g>
</svg>
